<svg version="1" xmlns="http://www.w3.org/2000/svg" width="682.667" height="682.667" viewBox="0 0 512.000000 512.000000"><path d="M0 256v256h512V0H0v256zM332.6 4c-6.3 5.6-7.1 13.9-1.9 20.1 5.2 6.1 1.3 5.9 94.8 5.9H511v481H175.9l3.5-3c6.3-5.6 7.1-13.9 1.9-20.1-5.2-6.1-1.3-5.9-94.8-5.9H1V1h335.1l-3.5 3z"/><path d="M137.9 73.3c-6.4 1.8-13.2 6-17.1 10.6-3.1 3.6-107.1 217.2-112.5 231-5.8 14.7.3 25.1 20.1 34.7 11.4 5.5 20.4 7.4 26.8 5.5 8.1-2.4 11.9-7.8 25.7-36.4L93.3 293h106.2l14 28.2c13.6 27.4 14.2 28.4 18.9 31.5 4.1 2.8 5.7 3.3 10.7 3.3 14.5 0 36.3-12 41.9-23.1 2.2-4.3 2.5-8.5.9-14.4-.9-3.4-86.9-182.4-105.6-219.8-7.2-14.6-11.3-19.6-18.7-23.2-6.4-3.1-16.9-4.1-23.7-2.2zm33.4 162.9c-.5.9-48.7 1.1-49.5.2-.4-.3 2.8-7.6 6.9-16.2 4.1-8.6 9.8-20.4 12.5-26.2l5-10.5 12.8 26c7 14.3 12.5 26.3 12.3 26.7zM325.7 152.4c-7.5 1.6-10.6 4-13.9 10.6l-2.8 5.4v254.1l2.4 5.1c4.3 9.3 10.7 11.8 30.1 11.8 19.5 0 24.8-2.3 29.7-12.9 2.2-4.9 2.2-5.7 2.6-50.2l.4-45.2 4.7 3.8c15.9 13.3 43.1 16.1 66.1 6.8 26.6-10.8 51-39.4 58.2-68.2 3.2-12.7 3.2-37.2 0-49-9.3-34.2-39.4-64.5-71-71.6-6.3-1.4-24.7-1.3-30.8.2-8.1 1.9-17 6.7-22.4 11.9-2.8 2.8-5.3 5-5.4 5-.2 0-.8-1.7-1.4-3.9-2.4-7.9-7.9-12-18.7-14-7.6-1.4-20.4-1.3-27.8.3zm93.7 66.2c6.4 2.2 14.8 10.1 18.3 17.2 2.4 4.8 2.8 7 2.8 13.7 0 9.9-2.5 15.7-10.1 23.2-6.8 6.6-13.7 9.3-23.7 9.3-9.2 0-15.4-2.8-22-9.9-9.1-9.7-11.5-19.8-7.8-31.9 3.1-10.3 11.8-19.4 21.1-22.3 4.5-1.3 16.5-1 21.4.7z"/></svg>