<svg id="Layer_1" data-name="Layer 1" xmlns="http://www.w3.org/2000/svg" viewBox="0 0 438 480">
  <circle cx="219" cy="250" r="50"/>
  <path d="M250,30c10.805,0,21.555,5.128,31.952,15.242C292.768,55.765,303,71.709,311.54,91.353,329.893,133.564,340,189.906,340,250s-10.107,116.436-28.46,158.647c-8.541,19.644-18.772,35.588-29.588,46.111C271.555,464.872,260.805,470,250,470s-21.555-5.128-31.952-15.242C207.232,444.235,197,428.291,188.46,408.647,170.107,366.436,160,310.094,160,250s10.107-116.436,28.46-158.647C197,71.709,207.232,55.765,218.048,45.242,228.445,35.128,239.2,30,250,30m0-10c-55.229,0-100,102.975-100,230s44.771,230,100,230S350,377.026,350,250,305.228,20,250,20Z" transform="translate(-31 0)"/>
  <path d="M120.842,116.029c23.234,0,51.016,4.887,80.343,14.132,31.057,9.791,62.62,23.886,93.813,41.9,52.043,30.047,95.783,66.972,123.162,103.971,12.742,17.218,21.434,34.051,25.139,48.68,3.561,14.061,2.627,25.934-2.776,35.292-4.374,7.576-11.7,13.476-21.771,17.534-10.6,4.271-23.916,6.436-39.589,6.436-23.236,0-51.019-4.886-80.345-14.131-31.059-9.79-62.625-23.886-93.82-41.9C152.955,297.894,109.215,260.97,81.835,223.97,69.094,206.752,60.4,189.919,56.7,175.291,53.136,161.23,54.07,149.356,59.472,140c4.374-7.576,11.7-13.476,21.771-17.534,10.6-4.27,23.916-6.435,39.594-6.436h0m-.009-10c-33.456,0-58.744,9.437-70.021,28.97C23.2,182.828,89.99,273.089,200,336.6c65.082,37.575,130.7,57.368,179.165,57.368,33.455,0,58.743-9.437,70.021-28.97C476.8,317.169,410.005,226.909,300,163.4c-65.082-37.575-130.7-57.37-179.165-57.367Z" transform="translate(-31 0)"/>
  <path d="M378.827,116.018c15.674,0,28.993,2.165,39.588,6.435,10.068,4.058,17.392,9.958,21.767,17.536,5.4,9.357,6.336,21.231,2.776,35.292-3.705,14.628-12.4,31.461-25.139,48.679-27.38,37-71.12,73.924-123.163,103.971-31.192,18.009-62.757,32.105-93.817,41.9-29.329,9.245-57.113,14.132-80.348,14.132-15.676,0-29-2.165-39.591-6.435-10.07-4.058-17.394-9.958-21.769-17.535-5.4-9.358-6.336-21.232-2.776-35.292,3.705-14.629,12.4-31.462,25.139-48.68,27.38-37,71.12-73.924,123.162-103.971,31.192-18.008,62.757-32.1,93.818-41.895,29.329-9.245,57.113-14.132,80.351-14.133h0m-.006-10c-48.464,0-114.089,19.8-179.165,57.367C89.649,226.9,22.856,317.159,50.471,364.989c11.279,19.535,36.557,28.97,70.02,28.97,48.465,0,114.09-19.8,179.165-57.368,110.008-63.513,176.8-153.773,149.186-201.6-11.279-19.536-36.557-28.972-70.021-28.97Z" transform="translate(-31 0)"/>
  <circle cx="219" cy="25" r="25"/>
  <circle cx="413" cy="362" r="25"/>
  <circle cx="25" cy="362" r="25"/>
</svg>
