<svg id="Layer_1" data-name="Layer 1" xmlns="http://www.w3.org/2000/svg" viewBox="0 0 436 480">
  <circle cx="218" cy="250" r="37.5" style="fill: #212529"/>
  <path d="M250,25c12.152,0,24.075,5.605,35.438,16.658,11.439,11.129,21.764,27.178,30.687,47.7C334.745,132.185,345,189.235,345,250s-10.255,117.815-28.875,160.641c-8.923,20.523-19.248,36.572-30.687,47.7C274.075,469.4,262.152,475,250,475s-24.075-5.605-35.438-16.658c-11.439-11.129-21.764-27.178-30.687-47.7C165.255,367.815,155,310.765,155,250s10.255-117.815,28.875-160.641c8.923-20.523,19.248-36.572,30.687-47.7C225.925,30.605,237.848,25,250,25m0-5c-55.229,0-100,102.975-100,230s44.771,230,100,230S350,377.026,350,250,305.228,20,250,20Z" transform="translate(-32 0)" style="fill: #212529"/>
  <path d="M120.842,111.029c23.737,0,52.039,4.966,81.846,14.363,31.4,9.9,63.3,24.143,94.81,42.334,52.623,30.383,96.9,67.788,124.682,105.327,13.312,17.989,22.048,34.955,25.966,50.426,3.891,15.367,2.784,28.5-3.293,39.02-4.946,8.567-13.1,15.186-24.232,19.672-11.193,4.511-25.142,6.8-41.458,6.8-23.739,0-52.042-4.966-81.849-14.362-31.405-9.9-63.306-24.143-94.816-42.336-52.624-30.382-96.9-67.788-124.682-105.326C64.5,208.955,55.767,191.989,51.85,176.518c-3.892-15.367-2.784-28.5,3.292-39.019,4.946-8.567,13.1-15.186,24.232-19.672,11.193-4.51,25.142-6.8,41.464-6.8h0m-.009-5c-33.456,0-58.744,9.437-70.021,28.97C23.2,182.828,89.99,273.089,200,336.6c65.082,37.575,130.7,57.368,179.165,57.368,33.455,0,58.743-9.437,70.021-28.97C476.8,317.169,410.005,226.909,300,163.4c-65.082-37.575-130.7-57.37-179.165-57.367Z" transform="translate(-32 0)" style="fill: #212529"/>
  <path d="M378.827,111.018c16.318,0,30.266,2.287,41.457,6.8,11.13,4.485,19.281,11.1,24.228,19.673,6.076,10.524,7.184,23.652,3.293,39.019-3.918,15.471-12.655,32.437-25.967,50.426-27.778,37.539-72.058,74.945-124.682,105.327-31.507,18.191-63.407,32.434-94.814,42.334-29.809,9.4-58.113,14.364-81.851,14.364-16.319,0-30.269-2.287-41.46-6.8-11.131-4.486-19.283-11.1-24.23-19.673-6.076-10.525-7.184-23.653-3.293-39.02C55.426,308,64.163,291.032,77.475,273.043,105.253,235.5,149.533,198.1,202.156,167.716c31.507-18.19,63.407-32.433,94.815-42.334,29.809-9.4,58.112-14.363,81.854-14.364h0m-.006-5c-48.464,0-114.089,19.8-179.165,57.368C89.649,226.9,22.856,317.159,50.471,364.989c11.279,19.535,36.557,28.97,70.02,28.97,48.465,0,114.09-19.8,179.165-57.368,110.008-63.513,176.8-153.773,149.186-201.6-11.279-19.536-36.558-28.972-70.021-28.971Z" transform="translate(-32 0)" style="fill: #212529"/>
  <circle cx="218" cy="20" r="20" style="fill: #212529"/>
  <circle cx="416" cy="365" r="20" style="fill: #212529"/>
  <circle cx="20" cy="364" r="20" style="fill: #212529"/>
</svg>
