<svg id="Layer_1" data-name="Layer 1" xmlns="http://www.w3.org/2000/svg" viewBox="0 0 504.133 504.044">
  <path d="M47.091,88.054H68.974q15.63,0,23.162-7.815t7.531-20.746q0-12.5-7.461-19.467T71.674,33.063q-11.8,0-19.751,6.466a20.672,20.672,0,0,0-7.958,16.838H2.9a50.509,50.509,0,0,1,8.739-29.059Q20.378,14.451,36.079,7.2a81.562,81.562,0,0,1,34.6-7.246q32.825,0,51.438,15.7t18.615,43.268a43.542,43.542,0,0,1-8.668,26.145,56.3,56.3,0,0,1-22.735,18.33q17.478,6.255,26.074,18.757t8.6,29.556q0,27.569-20.106,44.191T70.679,212.53q-30.979,0-50.657-16.342t-19.68-43.2H41.407a23.791,23.791,0,0,0,8.74,19.041q8.738,7.389,21.527,7.388,14.634,0,22.948-7.744t8.313-20.532q0-30.977-34.1-30.978H47.091Z" transform="translate(-0.342 0.044)" style="fill: #212529"/>
  <path d="M504.475,504H424.736V338.143H269.245V504h-79.74V117h79.74V273.82H424.736V117h79.739Z" transform="translate(-0.342 0.044)" style="fill: #212529"/>
</svg>
