<?xml version="1.0" encoding="utf-8"?>
<!-- Generator: Adobe Illustrator 22.1.0, SVG Export Plug-In . SVG Version: 6.00 Build 0)  -->
<svg version="1.1" id="Layer_1" xmlns="http://www.w3.org/2000/svg" xmlns:xlink="http://www.w3.org/1999/xlink" x="0px" y="0px"
	 viewBox="0 0 500 500" style="enable-background:new 0 0 500 500;" xml:space="preserve">
<style type="text/css">
	.st0{fill:#212529;}
</style>
<g>
	<circle class="st0" cx="250" cy="250" r="37.5"/>
</g>
<g>
	<path class="st0" d="M250,13c12.7,0,25,6,36.8,18c11.6,11.8,22.1,28.8,31.2,50.5c18.7,45,29.1,104.8,29.1,168.6
		s-10.3,123.6-29.1,168.6c-9,21.7-19.5,38.7-31.2,50.5C275,481,262.7,487,250,487s-25-6-36.8-18c-11.6-11.8-22.1-28.8-31.2-50.5
		C163.3,373.6,153,313.7,153,250s10.3-123.6,29.1-168.6c9-21.7,19.5-38.7,31.2-50.5C225,19,237.3,13,250,13 M250,10
		c-55.2,0-100,107.5-100,240s44.8,240,100,240s100-107.5,100-240S305.2,10,250,10L250,10z"/>
</g>
<g>
	<path class="st0" d="M110.6,105c24.9,0,54.8,5.4,86.6,15.5c33,10.5,68,26.2,101.3,45.5c55.2,31.9,101.9,70.7,131.4,109.4
		c14.3,18.7,23.7,36.2,28.1,52.2c4.5,16.1,3.5,29.9-2.8,40.8c-10,17.3-32.8,26.5-65.8,26.5c-24.9,0-54.8-5.4-86.6-15.5
		c-33-10.5-68-26.2-101.3-45.5c-55.2-31.9-101.9-70.7-131.4-109.4c-14.3-18.7-23.7-36.2-28.1-52.2c-4.5-16.1-3.5-29.9,2.8-40.8
		C54.8,114.2,77.5,105,110.6,105L110.6,105 M110.6,102c-32.9,0-57.5,9.1-68.4,28C14.5,177.8,85.2,270.3,200,336.6
		c69.4,40.1,139.1,61.4,189.4,61.4c32.9,0,57.5-9.1,68.4-28c27.6-47.8-43.1-140.3-157.8-206.6C230.6,123.3,160.9,102,110.6,102
		L110.6,102z"/>
</g>
<g>
	<path class="st0" d="M389.1,105c33,0,55.8,9.2,65.8,26.5c6.3,11,7.3,24.7,2.8,40.8c-4.4,16-13.9,33.6-28.1,52.2
		C400,263.3,353.3,302.1,298.2,334c-33.3,19.2-68.3,34.9-101.3,45.5c-31.8,10.2-61.8,15.5-86.6,15.5c-33.1,0-55.8-9.2-65.8-26.5
		c-6.3-11-7.3-24.7-2.8-40.8c4.4-16,13.9-33.6,28.1-52.2C99.3,236.7,146,197.8,201.2,166c33.3-19.2,68.3-34.9,101.3-45.5
		C334.3,110.4,364.2,105,389.1,105L389.1,105 M389.1,102c-50.3,0-120,21.3-189.4,61.4C84.9,229.7,14.2,322.2,41.8,370
		c10.9,18.9,35.5,28,68.4,28c50.3,0,120-21.3,189.4-61.4C414.4,270.3,485.1,177.8,457.5,130C446.6,111.1,422,102,389.1,102
		L389.1,102z"/>
</g>
<g>
	<circle class="st0" cx="249.5" cy="12.5" r="12.5"/>
</g>
<g>
	<circle class="st0" cx="455.5" cy="368.5" r="12.5"/>
</g>
<g>
	<circle class="st0" cx="42.5" cy="369.5" r="12.5"/>
</g>
</svg>
